HIERARCHY
ROOT Hips
{
	OFFSET 0.000000 0.000000 0.000000
	CHANNELS 6 Xposition Yposition Zposition Xrotation Yrotation Zrotation
	JOINT LeftUpLeg_virtual
	{
		OFFSET 0.000000 0.000000 0.000000
		CHANNELS 3 Xrotation Yrotation Zrotation
		JOINT LeftUpLeg
		{
			OFFSET 10.205400 -3.823500 0.155100
			CHANNELS 3 Xrotation Yrotation Zrotation
			JOINT LeftLeg
			{
				OFFSET 0.708757 -12.982077 0.567790
				CHANNELS 3 Xrotation Yrotation Zrotation
				JOINT LeftFoot
				{
					OFFSET -0.708756 -10.717838 -2.184338
					CHANNELS 3 Xrotation Yrotation Zrotation
					JOINT LeftToeBase
					{
						OFFSET 0.108149 -7.191104 7.560241
						CHANNELS 3 Xrotation Yrotation Zrotation
						JOINT LeftToe_End
						{
							OFFSET 0.070230 0.081724 4.490308
							CHANNELS 3 Xrotation Yrotation Zrotation
							End Site
							{
								OFFSET 0 0 0
							}
						}
					}
				}
			}
		}
	}
	JOINT RightUpLeg_virtual
	{
		OFFSET 0.000000 0.000000 0.000000
		CHANNELS 3 Xrotation Yrotation Zrotation
		JOINT RightUpLeg
		{
			OFFSET -10.205400 -3.823500 0.005500
			CHANNELS 3 Xrotation Yrotation Zrotation
			JOINT RightLeg
			{
				OFFSET -0.708756 -12.982134 0.610632
				CHANNELS 3 Xrotation Yrotation Zrotation
				JOINT RightFoot
				{
					OFFSET 0.708754 -10.717769 -1.945823
					CHANNELS 3 Xrotation Yrotation Zrotation
					JOINT RightToeBase
					{
						OFFSET -0.108140 -7.191069 7.372968
						CHANNELS 3 Xrotation Yrotation Zrotation
						JOINT RightToe_End
						{
							OFFSET -0.070227 0.081735 4.479403
							CHANNELS 3 Xrotation Yrotation Zrotation
							End Site
							{
								OFFSET 0 0 0
							}
						}
					}
				}
			}
		}
	}
	JOINT Spine_virtual
	{
		OFFSET 0.000000 0.000000 0.000000
		CHANNELS 3 Xrotation Yrotation Zrotation
		JOINT Spine
		{
			OFFSET 0.000000 6.876099 0.125700
			CHANNELS 3 Xrotation Yrotation Zrotation
			JOINT Spine1
			{
				OFFSET 0.000000 5.730043 0.104720
				CHANNELS 3 Xrotation Yrotation Zrotation
				JOINT Spine1_split
				{
					OFFSET 0.000000 5.730043 0.104720
					CHANNELS 3 Xrotation Yrotation Zrotation
					JOINT Spine2
					{
						OFFSET 0.000000 5.730043 0.104720
						CHANNELS 3 Xrotation Yrotation Zrotation
						JOINT Neck_virtual
						{
							OFFSET 0.000000 0.000000 0.000000
							CHANNELS 3 Xrotation Yrotation Zrotation
							JOINT Neck
							{
								OFFSET 0.000000 10.314075 0.188496
								CHANNELS 3 Xrotation Yrotation Zrotation
								JOINT Head
								{
									OFFSET 0.000000 7.643700 -2.377400
									CHANNELS 3 Xrotation Yrotation Zrotation
									JOINT HeadTop_End
									{
										OFFSET 0.000000 43.788605 -13.619600
										CHANNELS 3 Xrotation Yrotation Zrotation
										End Site
										{
											OFFSET 0 0 0
										}
									}
								}
							}
						}
						JOINT LeftShoulder_virtual
						{
							OFFSET 0.000000 0.000000 0.000000
							CHANNELS 3 Xrotation Yrotation Zrotation
							JOINT LeftShoulder
							{
								OFFSET 2.196100 4.412489 0.087492
								CHANNELS 3 Xrotation Yrotation Zrotation
								JOINT LeftShoulder_split
								{
									OFFSET 2.196100 4.412489 0.087492
									CHANNELS 3 Xrotation Yrotation Zrotation
									JOINT LeftArm
									{
										OFFSET 8.771219 -2.981674 -0.026999
										CHANNELS 3 Xrotation Yrotation Zrotation
										JOINT LeftForeArm
										{
											OFFSET 8.512804 0.000000 -0.000000
											CHANNELS 3 Xrotation Yrotation Zrotation
											JOINT LeftHand
											{
												OFFSET 18.484802 0.000000 -0.000000
												CHANNELS 3 Xrotation Yrotation Zrotation
												End Site
												{
													OFFSET 0 0 0
												}
											}
										}
									}
								}
							}
						}
						JOINT RightShoulder_virtual
						{
							OFFSET 0.000000 0.000000 0.000000
							CHANNELS 3 Xrotation Yrotation Zrotation
							JOINT RightShoulder
							{
								OFFSET -2.196100 4.412496 0.070690
								CHANNELS 3 Xrotation Yrotation Zrotation
								JOINT RightShoulder_split
								{
									OFFSET -2.196100 4.412496 0.070690
									CHANNELS 3 Xrotation Yrotation Zrotation
									JOINT RightArm
									{
										OFFSET -8.771282 -2.981682 -0.094208
										CHANNELS 3 Xrotation Yrotation Zrotation
										JOINT RightForeArm
										{
											OFFSET -8.494598 0.000000 0.000000
											CHANNELS 3 Xrotation Yrotation Zrotation
											JOINT RightHand
											{
												OFFSET -18.483803 0.000000 0.000001
												CHANNELS 3 Xrotation Yrotation Zrotation
												End Site
												{
													OFFSET 0 0 0
												}
											}
										}
									}
								}
							}
						}
					}
				}
			}
		}
	}
}
MOTION
Frames: 4
Frame Time: 0.03333333
1.207126 30.488625 -7.108185 0.000000 0.000000 0.000000 -5.189746 -8.243511 13.806814 -33.867391 -16.180476 -2.112439 29.878577 6.517812 2.332018 3.974388 -4.363151 6.458238 7.301476 -1.537085 8.193993 0.000000 0.000000 0.000000 -8.347318 -5.774359 13.848478 -17.018837 -30.679611 -35.784621 48.022285 -8.756643 0.072316 -27.870939 -24.593177 22.125810 20.312697 8.596794 -53.272808 0.000000 0.000000 0.000000 -8.145326 -8.882302 12.650177 27.793105 -5.415978 4.563907 2.088937 6.413167 6.022465 0.203181 0.107232 0.146128 0.000000 0.000000 0.000000 8.457110 8.306675 4.845384 -0.678421 7.925924 18.037198 27.876843 -10.885497 -25.440689 0.000000 0.000000 0.000000 6.571153 7.464844 3.901675 -5.660392 -35.580662 -9.182406 11.149866 -2.031538 7.393290 -12.997183 31.058465 -88.327228 31.974578 -20.416861 21.726130 0.000000 0.000000 0.000000 7.295878 7.689158 5.444716 6.294681 -9.718600 -2.132012 -13.812714 8.076651 -16.230720 -21.965552 14.480611 54.534187 20.610109 -2.366925 -1.245157 0.000000 0.000000 0.000000 
0.946973 30.706711 -6.773855 0.000000 0.000000 0.000000 -5.965610 -5.064889 14.044725 -34.085185 -12.238186 -3.959496 26.613059 6.744668 1.261595 4.838881 -5.862492 6.639597 5.791013 -1.734517 9.300344 0.000000 0.000000 0.000000 -8.266723 -3.254219 14.762411 -9.534291 -30.990402 -30.650634 48.709528 -8.889748 0.006870 -30.357148 -23.734639 17.262434 15.572285 11.453543 -53.118583 0.000000 0.000000 0.000000 -9.944843 -4.939353 13.161239 25.519726 -5.817765 4.180752 1.709590 6.665368 6.413124 -0.383184 0.779842 0.100724 0.000000 0.000000 0.000000 7.607399 8.562897 4.739801 0.312430 6.623864 18.668691 26.385002 -10.819307 -25.390018 0.000000 0.000000 0.000000 5.965016 7.584133 4.463319 -4.543028 -34.149966 -6.079129 16.467135 -2.573488 6.730845 -20.078210 31.627099 -84.368204 32.514183 -24.123224 22.339413 0.000000 0.000000 0.000000 7.317748 7.776355 5.431917 5.875057 -8.908322 -1.009420 -14.610866 11.449093 -11.155311 -22.053395 11.942694 57.106334 19.865202 -1.788499 -0.695520 0.000000 0.000000 0.000000 
0.746683 31.048662 -6.427828 0.000000 0.000000 0.000000 -7.719694 1.754563 14.945263 -33.585502 -7.756085 -6.963756 22.632797 5.186416 -0.608748 9.783722 -10.549834 6.210685 3.329526 -2.406398 12.522477 0.000000 0.000000 0.000000 -9.011331 3.692185 16.038263 2.798513 -27.969770 -22.272806 48.443687 -7.280662 -1.143007 -26.957889 -21.849755 16.213030 1.976096 16.795205 -47.454136 0.000000 0.000000 0.000000 -12.005016 3.286397 14.340414 21.742862 -6.358408 2.968998 0.990394 6.803423 7.039194 -0.503471 1.224576 0.091730 0.000000 0.000000 0.000000 6.504896 8.915279 5.303151 0.656542 5.772265 18.621479 23.541516 -11.252437 -24.250829 0.000000 0.000000 0.000000 4.591016 7.898390 5.798067 -2.758626 -29.915607 -0.892984 20.930954 -1.934426 1.935598 -27.798453 29.052896 -77.884271 33.100914 -27.588860 23.160413 0.000000 0.000000 0.000000 6.414848 7.811492 5.856868 5.929273 -6.770587 0.937231 -15.456706 11.988424 -6.775713 -21.982585 11.073505 57.492598 18.101775 -2.455032 0.144579 0.000000 0.000000 0.000000 
0.562349 31.399122 -5.890368 0.000000 0.000000 0.000000 -9.817164 10.628215 16.140242 -32.809603 -3.642808 -10.281475 19.990283 2.983343 -2.990617 18.645836 -16.340164 7.870735 1.463666 -3.324199 16.446713 0.000000 0.000000 0.000000 -10.680696 13.618420 17.410548 14.987214 -21.454809 -14.384049 46.537323 -3.739510 -2.968714 -18.972111 -18.919617 17.709229 -16.159027 19.237805 -35.631167 0.000000 0.000000 0.000000 -14.116159 13.317535 15.831204 17.437972 -6.736108 1.556955 -0.028821 6.813681 7.447702 -0.362714 1.306469 -0.028348 0.000000 0.000000 0.000000 5.141441 9.205548 6.093037 0.112213 5.395055 18.336293 19.743490 -12.074736 -22.088787 0.000000 0.000000 0.000000 2.758378 8.307255 7.126795 -1.347574 -23.537655 4.813669 23.703096 -0.371823 -5.125652 -34.231375 24.043605 -70.001960 31.950010 -28.054047 22.768313 0.000000 0.000000 0.000000 4.773718 7.742348 6.222535 6.249307 -3.610897 2.979993 -15.794049 10.688046 -3.272953 -21.423063 11.903903 55.110344 15.736725 -5.040355 0.987716 0.000000 0.000000 0.000000 
